<svg width="248" height="78" viewBox="0 0 248 78" fill="none" xmlns="http://www.w3.org/2000/svg">
<path d="M113 53.8999H114C115.6 53.8999 117 54.2999 116.7 56.1999C116.6 56.7999 116.2 57.4999 115.6 57.7999C116.5 57.9999 117.1 58.8999 116.9 59.8999C116.6 61.5999 115.1 62.1999 113.7 62.1999H111.8L113 53.8999ZM112.9 61.2999H113.7C114.7 61.2999 115.7 60.9999 115.9 59.7999C116.1 58.5999 114.9 58.3999 114 58.3999H113.4L112.9 61.2999ZM113.5 57.5999H113.8C114.8 57.5999 115.6 57.3999 115.8 56.1999C116 54.9999 115.2 54.7999 114.3 54.7999H114L113.5 57.5999Z" fill="#878787"/>
<path d="M119.3 57.1001L118.8 59.9001C118.7 60.7001 118.8 61.5001 119.7 61.5001C120.7 61.5001 121 60.8001 121.1 59.9001L121.6 57.1001H122.6L122.1 60.1001C121.9 61.5001 121.1 62.5001 119.5 62.5001C118 62.5001 117.5 61.5001 117.7 60.1001L118.2 57.1001H119.3Z" fill="#878787"/>
<path d="M125.9 58.2003C125.8 57.9003 125.6 57.7003 125.3 57.7003C125 57.7003 124.7 57.9003 124.7 58.2003C124.6 58.7003 125.2 58.8003 125.8 59.1003C126.4 59.4003 126.9 59.7003 126.8 60.6003C126.6 61.6003 125.7 62.3003 124.8 62.3003C124.1 62.3003 123.4 61.9003 123.2 61.1003L124.1 60.7003C124.2 61.1003 124.5 61.4003 124.9 61.4003C125.3 61.4003 125.7 61.1003 125.8 60.7003C125.8 60.4003 125.7 60.3003 125.5 60.1003L124.6 59.6003C124.1 59.3003 123.7 59.0003 123.8 58.3003C123.9 57.5003 124.7 56.8003 125.5 56.8003C126.1 56.8003 126.6 57.1003 126.8 57.7003L125.9 58.2003Z" fill="#878787"/>
<path d="M128.7 62.2H127.7L128.5 57.1H129.5L128.7 62.2ZM130 54.7C129.9 55.1 129.6 55.4 129.2 55.4C128.8 55.4 128.6 55.1 128.6 54.7C128.7 54.3 129 54 129.4 54C129.8 54 130.1 54.3 130 54.7Z" fill="#878787"/>
<path d="M131.9 57.8C132.3 57.2 133 57 133.6 57C135.1 57 135.3 58 135.1 59.2L134.6 62.3H133.6L134.1 59.4C134.2 58.5 134.2 57.9 133.2 57.9C131.9 57.9 131.7 59 131.6 60L131.2 62.4H130.2L131 57.3H132L131.9 57.8Z" fill="#878787"/>
<path d="M137 59.7999C136.9 60.6999 137.3 61.4999 138.3 61.4999C139.1 61.4999 139.5 61.0999 140 60.4999L140.8 60.9999C140.2 61.8999 139.2 62.3999 138.2 62.3999C136.6 62.3999 135.9 61.1999 136.1 59.6999C136.4 58.0999 137.4 56.8999 139 56.8999C140.6 56.8999 141.2 58.0999 141 59.5999V59.7999H137ZM140 59.0999C140 58.2999 139.6 57.7999 138.8 57.7999C138 57.7999 137.4 58.3999 137.1 59.0999H140Z" fill="#878787"/>
<path d="M144.099 58.2003C143.999 57.9003 143.799 57.7003 143.499 57.7003C143.199 57.7003 142.899 57.9003 142.899 58.2003C142.799 58.7003 143.399 58.8003 143.999 59.1003C144.599 59.4003 145.099 59.7003 144.999 60.6003C144.799 61.6003 143.899 62.3003 142.999 62.3003C142.299 62.3003 141.599 61.9003 141.399 61.1003L142.299 60.7003C142.399 61.1003 142.699 61.4003 143.099 61.4003C143.499 61.4003 143.899 61.1003 143.999 60.7003C143.999 60.4003 143.899 60.3003 143.699 60.1003L142.799 59.6003C142.299 59.3003 141.899 59.0003 141.999 58.3003C142.099 57.5003 142.899 56.8003 143.699 56.8003C144.299 56.8003 144.799 57.1003 144.999 57.7003L144.099 58.2003Z" fill="#878787"/>
<path d="M148.3 58.2003C148.2 57.9003 148 57.7003 147.7 57.7003C147.4 57.7003 147.1 57.9003 147.1 58.2003C147 58.7003 147.6 58.8003 148.2 59.1003C148.8 59.4003 149.3 59.7003 149.2 60.6003C149 61.6003 148.1 62.3003 147.2 62.3003C146.5 62.3003 145.8 61.9003 145.6 61.1003L146.5 60.7003C146.6 61.1003 146.9 61.4003 147.3 61.4003C147.7 61.4003 148.1 61.1003 148.2 60.7003C148.2 60.4003 148.1 60.3003 147.9 60.1003L147 59.6003C146.5 59.3003 146.1 59.0003 146.2 58.3003C146.3 57.5003 147.1 56.8003 147.9 56.8003C148.5 56.8003 149 57.1003 149.2 57.7003L148.3 58.2003Z" fill="#878787"/>
<path d="M157.9 55.4999C157.7 54.9999 157.3 54.6999 156.7 54.6999C156 54.6999 155.2 55.1999 155.1 55.8999C155 56.4999 155.6 56.8999 156.1 57.0999L156.7 57.2999C157.8 57.7999 158.6 58.3999 158.4 59.7999C158.2 61.2999 156.8 62.3999 155.3 62.3999C154 62.3999 153.1 61.3999 153.1 60.0999L154.2 59.8999C154 60.7999 154.7 61.4999 155.6 61.4999C156.5 61.4999 157.3 60.7999 157.4 59.8999C157.5 58.9999 156.9 58.5999 156.2 58.2999L155.7 58.0999C154.8 57.6999 154 57.1999 154.2 55.9999C154.4 54.6999 155.7 53.8999 157 53.8999C157.9 53.8999 158.6 54.3999 158.9 55.1999L157.9 55.4999Z" fill="#878787"/>
<path d="M160.1 62.2H159.1L159.9 57.1H160.9L160.1 62.2ZM161.5 54.7C161.4 55.1 161.1 55.4 160.7 55.4C160.3 55.4 160.1 55.1 160.1 54.7C160.2 54.3 160.5 54 160.9 54C161.3 54 161.6 54.3 161.5 54.7Z" fill="#878787"/>
<path d="M163.4 57.6999C163.8 57.1999 164.3 56.8999 164.9 56.8999C165.6 56.8999 166 57.1999 166.2 57.7999C166.6 57.1999 167.3 56.8999 167.9 56.8999C169.3 56.8999 169.4 57.9999 169.3 59.0999L168.8 62.1999H167.8L168.3 59.2999C168.4 58.5999 168.5 57.7999 167.6 57.7999C166.5 57.7999 166.3 58.8999 166.2 59.6999L165.8 62.1999H164.8L165.2 59.4999C165.3 58.7999 165.4 57.7999 164.5 57.7999C163.4 57.7999 163.2 58.8999 163 59.6999L162.6 62.1999H161.6L162.4 57.0999H163.4V57.6999Z" fill="#878787"/>
<path d="M171.7 57.8999C172.2 57.2999 172.9 56.8999 173.7 56.8999C175.2 56.8999 175.9 58.1999 175.7 59.5999C175.5 61.0999 174.4 62.3999 172.8 62.3999C172.1 62.3999 171.5 61.9999 171.2 61.3999L170.6 65.1999H169.6L170.9 57.0999H171.9L171.7 57.8999ZM174.7 59.5999C174.9 58.5999 174.4 57.7999 173.3 57.7999C172.3 57.7999 171.5 58.6999 171.4 59.5999C171.2 60.5999 171.7 61.4999 172.7 61.4999C173.8 61.4999 174.5 60.6999 174.7 59.5999Z" fill="#878787"/>
<path d="M177.3 62.2001H176.3L177.8 52.6001H178.8L177.3 62.2001Z" fill="#878787"/>
<path d="M179.899 62.2H178.899L179.699 57.1H180.699L179.899 62.2ZM181.299 54.7C181.199 55.1 180.899 55.4 180.499 55.4C180.099 55.4 179.899 55.1 179.899 54.7C179.999 54.3 180.299 54 180.699 54C181.099 54 181.399 54.3 181.299 54.7Z" fill="#878787"/>
<path d="M185.4 53.7001C185.2 53.6001 185 53.5001 184.8 53.5001C184.1 53.5001 184 54.4001 183.9 54.9001L183.5 57.1001H184.9L184.8 58.0001H183.4L182.7 62.2001H181.7L182.4 58.0001H181.9L182 57.1001H182.5L182.9 54.6001C183.1 53.5001 183.6 52.6001 184.9 52.6001C185.1 52.6001 185.4 52.6001 185.6 52.7001L185.4 53.7001ZM185.6 62.2001H184.6L185.4 57.1001H186.4L185.6 62.2001ZM186.9 54.7001C186.8 55.1001 186.5 55.4001 186.1 55.4001C185.7 55.4001 185.5 55.1001 185.5 54.7001C185.6 54.3001 185.9 54.0001 186.3 54.0001C186.7 54.0001 187 54.3001 186.9 54.7001Z" fill="#878787"/>
<path d="M188.099 59.7999C187.999 60.6999 188.399 61.4999 189.399 61.4999C190.199 61.4999 190.599 61.0999 191.099 60.4999L191.899 60.9999C191.299 61.8999 190.299 62.3999 189.299 62.3999C187.699 62.3999 186.999 61.1999 187.199 59.6999C187.499 58.0999 188.499 56.8999 190.099 56.8999C191.699 56.8999 192.299 58.0999 192.099 59.5999V59.7999H188.099ZM191.199 59.0999C191.199 58.2999 190.799 57.7999 189.999 57.7999C189.199 57.7999 188.599 58.3999 188.299 59.0999H191.199Z" fill="#878787"/>
<path d="M196.5 61.4001C196 62.0001 195.3 62.4001 194.6 62.4001C193 62.4001 192.3 61.1001 192.6 59.6001C192.8 58.2001 194 56.9001 195.4 56.9001C196.2 56.9001 196.7 57.3001 197 57.9001L197.8 52.6001H198.8L197.3 62.2001H196.3L196.5 61.4001ZM196.8 59.6001C197 58.6001 196.5 57.8001 195.4 57.8001C194.4 57.8001 193.6 58.7001 193.5 59.6001C193.3 60.6001 193.8 61.5001 194.8 61.5001C195.9 61.5001 196.6 60.7001 196.8 59.6001Z" fill="#878787"/>
<path d="M83.0002 24H96.2002V24.6C96.2002 25.2 96.1002 25.8 96.0002 26.4C95.9002 27 95.7002 27.6 95.4002 28.2H87.1002L86.2002 33.4H92.8002C92.8002 34.7 92.6002 36.1 92.1002 37.6H85.5002L84.3002 44H92.9002V44.6C92.9002 45.2 92.8002 45.8 92.7002 46.4C92.6002 47 92.4002 47.6 92.2002 48.3H78.7002L83.0002 24Z" fill="#2E2864"/>
<path d="M100.501 39.2L98.6006 30.8C99.4006 30.7 100.201 30.6 101.001 30.6C101.401 30.6 101.801 30.6 102.101 30.7C102.401 30.7 102.801 30.8 103.201 30.9L105.001 39.3L101.501 45.2C101.101 45.8 100.801 46.4 100.701 46.8C100.501 47.2 100.401 47.7 100.401 48.2C99.8006 48.3 99.3006 48.4 98.8006 48.4H96.9006C96.6006 48.4 96.1006 48.3 95.6006 48.2C95.6006 47.7 95.8006 47.2 95.9006 46.7C96.1006 46.2 96.4006 45.7 96.8006 45.1L100.501 39.2ZM105.301 39.2L108.401 33.9C108.801 33.3 109.001 32.7 109.101 32.2C109.201 31.7 109.201 31.2 109.301 30.7C109.901 30.6 110.401 30.5 110.801 30.5H112.901C113.201 30.5 113.601 30.6 114.001 30.6C114.001 31 113.901 31.6 113.801 32.2C113.701 32.8 113.401 33.5 112.901 34.3L109.901 38.9L112.001 48C111.101 48.1 110.201 48.2 109.501 48.2C108.701 48.2 107.901 48.1 107.101 48L105.301 39.2Z" fill="#2E2864"/>
<path d="M125.9 43.9998C126.1 44.3998 126.3 44.8998 126.5 45.3998C126.7 45.9998 126.7 46.6998 126.7 47.5998C126 47.8998 125.2 48.0998 124.4 48.2998C123.6 48.3998 122.7 48.4998 121.7 48.4998C119.1 48.4998 117.3 47.8998 116.1 46.5998C114.9 45.3998 114.3 43.6998 114.3 41.4998C114.3 40.1998 114.5 38.8998 115 37.4998C115.4 36.1998 116.1 34.9998 116.9 33.8998C117.8 32.7998 118.8 31.9998 120 31.2998C121.2 30.5998 122.7 30.2998 124.3 30.2998C125.1 30.2998 125.8 30.3998 126.5 30.4998C127.2 30.5998 127.9 30.7998 128.5 30.9998C128.5 31.5998 128.4 32.1998 128.2 32.8998C128 33.5998 127.7 34.1998 127.4 34.7998C126.9 34.5998 126.4 34.3998 125.9 34.2998C125.4 34.1998 124.9 34.0998 124.3 34.0998C123.4 34.0998 122.7 34.2998 122 34.6998C121.4 35.0998 120.8 35.5998 120.4 36.1998C120 36.7998 119.6 37.5998 119.4 38.3998C119.2 39.1998 119.1 40.0998 119.1 40.9998C119.1 42.1998 119.4 43.0998 120 43.6998C120.6 44.2998 121.4 44.5998 122.4 44.5998C122.9 44.5998 123.4 44.5998 123.9 44.4998C124.6 44.4998 125.2 44.2998 125.9 43.9998Z" fill="#2E2864"/>
<path d="M133.7 41.6C133.8 42.7 134.2 43.5 134.8 44C135.4 44.5 136.2 44.8 137.4 44.8C138.3 44.8 139.1 44.7 139.8 44.5C140.5 44.3 141.2 44.1 142 43.7C142.4 44.1 142.6 44.7 142.7 45.3C142.8 45.9 142.9 46.6 142.9 47.3C142.5 47.5 142.1 47.6 141.6 47.8C141.1 47.9 140.6 48.1 140 48.2C139.5 48.3 138.9 48.4 138.4 48.4C137.9 48.5 137.4 48.5 137 48.5C135.6 48.5 134.5 48.3 133.5 48C132.5 47.7 131.7 47.2 131.1 46.6C130.5 46 130 45.2 129.7 44.4C129.4 43.5 129.2 42.5 129.2 41.5C129.2 40.1 129.4 38.8 129.9 37.5C130.4 36.2 131 35 131.9 34C132.8 33 133.8 32.1 135.1 31.5C136.3 30.9 137.7 30.5 139.3 30.5C140 30.5 140.7 30.6 141.4 30.8C142 31 142.6 31.3 143.1 31.6C143.6 32 143.9 32.4 144.2 33C144.5 33.5 144.6 34.2 144.6 34.9C144.6 35.9 144.4 36.8 143.9 37.5C143.4 38.2 142.8 38.9 142 39.4C141.2 39.9 140.3 40.3 139.3 40.7C138.3 41 137.3 41.3 136.2 41.4L133.7 41.6ZM135.6 38.2C136.5 38.1 137.1 37.9 137.7 37.7C138.2 37.5 138.7 37.3 139 37C139.3 36.7 139.5 36.5 139.6 36.2C139.7 35.9 139.8 35.7 139.8 35.4C139.8 35 139.7 34.6 139.4 34.4C139.1 34.1 138.7 34 138.3 34C137.7 34 137.2 34.1 136.7 34.4C136.2 34.7 135.8 35 135.4 35.4C135 35.8 134.7 36.3 134.5 36.9C134.2 37.4 134 38 133.9 38.6L135.6 38.2Z" fill="#2E2864"/>
<path d="M148.3 30.0998C148.5 28.8998 148.7 27.8998 148.8 26.9998C148.9 26.0998 149 25.3998 149 24.7998V24.1998C149 23.9998 149 23.7998 148.9 23.5998C149.3 23.4998 149.7 23.4998 150.2 23.3998C150.7 23.3998 151.1 23.2998 151.5 23.2998C152.1 23.2998 152.9 23.3998 153.6 23.4998C153.7 23.7998 153.8 24.2998 153.8 24.7998C153.8 25.2998 153.8 25.7998 153.7 26.3998C153.6 26.9998 153.5 27.6998 153.4 28.3998L150.7 41.9998C150.6 42.3998 150.6 42.6998 150.6 42.8998C150.6 43.2998 150.7 43.4998 150.8 43.6998C150.9 43.8998 151 44.0998 151.2 44.1998C151.4 44.2998 151.5 44.3998 151.7 44.3998C151.9 44.3998 152.1 44.4998 152.3 44.4998C152.4 44.4998 152.6 44.4998 152.8 44.3998C153 44.3998 153.3 44.2998 153.5 44.1998C153.6 44.5998 153.7 44.9998 153.8 45.3998C153.9 45.7998 153.9 46.2998 153.9 46.7998V47.2998C153.9 47.4998 153.9 47.5998 153.8 47.7998C153.5 47.8998 153 47.9998 152.5 48.0998C152 48.1998 151.4 48.1998 150.7 48.1998C149.2 48.1998 148 47.7998 147.1 47.0998C146.2 46.2998 145.8 45.1998 145.8 43.5998C145.8 43.2998 145.8 42.9998 145.9 42.5998C145.9 42.2998 146 41.8998 146.1 41.4998L148.3 30.0998Z" fill="#2E2864"/>
<path d="M158.3 30.0998C158.5 28.8998 158.7 27.8998 158.8 26.9998C158.9 26.0998 159 25.3998 159 24.7998V23.5998C159.4 23.4998 159.8 23.4998 160.3 23.3998C160.8 23.3998 161.2 23.2998 161.6 23.2998C162.2 23.2998 163 23.3998 163.7 23.4998C163.8 23.7998 163.9 24.2998 163.9 24.7998C163.9 25.2998 163.9 25.7998 163.8 26.3998C163.7 26.9998 163.6 27.6998 163.5 28.3998L160.8 41.9998C160.7 42.3998 160.7 42.6998 160.7 42.8998C160.7 43.2998 160.8 43.4998 160.9 43.6998C161 43.8998 161.1 44.0998 161.3 44.1998C161.5 44.2998 161.6 44.3998 161.8 44.3998C162 44.3998 162.2 44.4998 162.4 44.4998C162.5 44.4998 162.7 44.4998 162.9 44.3998C163.1 44.2998 163.4 44.2998 163.6 44.1998C163.7 44.5998 163.8 44.9998 163.9 45.3998C164 45.7998 164 46.2998 164 46.7998V47.2998C164 47.4998 164 47.5998 163.9 47.7998C163.6 47.8998 163.1 47.9998 162.6 48.0998C162.1 48.1998 161.5 48.1998 160.8 48.1998C159.3 48.1998 158.1 47.7998 157.2 47.0998C156.3 46.2998 155.9 45.1998 155.9 43.5998C155.9 43.2998 155.9 42.9998 156 42.5998C156 42.2998 156.1 41.8998 156.2 41.4998L158.3 30.0998Z" fill="#2E2864"/>
<path d="M170.5 41.6C170.6 42.7 171 43.5 171.6 44C172.2 44.5 173 44.8 174.2 44.8C175.1 44.8 175.9 44.7 176.6 44.5C177.3 44.3 178 44.1 178.8 43.7C179.2 44.1 179.4 44.7 179.5 45.3C179.6 45.9 179.7 46.6 179.7 47.3C179.3 47.5 178.9 47.6 178.4 47.8C177.9 47.9 177.4 48.1 176.8 48.2C176.3 48.3 175.7 48.4 175.2 48.4C174.7 48.5 174.2 48.5 173.8 48.5C172.4 48.5 171.3 48.3 170.3 48C169.3 47.7 168.5 47.2 167.9 46.6C167.3 46 166.8 45.2 166.5 44.4C166.2 43.5 166 42.5 166 41.5C166 40.1 166.2 38.8 166.7 37.5C167.2 36.2 167.8 35 168.7 34C169.6 33 170.6 32.1 171.9 31.5C173.1 30.9 174.5 30.5 176.1 30.5C176.8 30.5 177.5 30.6 178.2 30.8C178.8 31 179.4 31.3 179.9 31.6C180.4 32 180.7 32.4 181 33C181.3 33.5 181.4 34.2 181.4 34.9C181.4 35.9 181.2 36.8 180.7 37.5C180.2 38.2 179.6 38.9 178.8 39.4C178 39.9 177.1 40.3 176.1 40.7C175.1 41 174.1 41.3 173 41.4L170.5 41.6ZM172.4 38.2C173.3 38.1 173.9 37.9 174.5 37.7C175 37.5 175.5 37.3 175.8 37C176.1 36.7 176.3 36.5 176.4 36.2C176.5 35.9 176.6 35.7 176.6 35.4C176.6 35 176.5 34.6 176.2 34.4C175.9 34.1 175.5 34 175.1 34C174.5 34 174 34.1 173.5 34.4C173 34.7 172.6 35 172.2 35.4C171.8 35.8 171.5 36.3 171.3 36.9C171 37.4 170.8 38 170.7 38.6L172.4 38.2Z" fill="#2E2864"/>
<path d="M183.901 38.2996C184.101 36.8996 184.301 35.5996 184.501 34.5996C184.601 33.4996 184.701 32.6996 184.701 32.0996V30.8996C185.401 30.7996 186.201 30.6996 186.901 30.6996C187.201 30.6996 187.601 30.6996 187.901 30.7996C188.201 30.7996 188.601 30.8996 189.001 30.9996C189.001 31.1996 189.101 31.3996 189.101 31.5996C189.101 31.7996 189.201 32.1996 189.201 32.6996V33.2996C189.201 33.4996 189.201 33.6996 189.101 33.9996C189.401 33.4996 189.701 33.0996 190.101 32.6996C190.501 32.2996 191.001 31.8996 191.501 31.5996C192.001 31.2996 192.601 30.9996 193.201 30.8996C193.801 30.6996 194.401 30.5996 195.001 30.5996C196.301 30.5996 197.401 30.8996 198.101 31.5996C198.801 32.2996 199.201 33.3996 199.201 34.9996C199.201 35.2996 199.201 35.6996 199.101 36.0996C199.101 36.4996 199.001 36.8996 198.901 37.2996L197.001 48.2996C196.101 48.3996 195.301 48.4996 194.501 48.4996C193.701 48.4996 192.901 48.3996 192.201 48.2996L194.101 37.6996C194.201 37.2996 194.201 36.7996 194.201 36.3996C194.201 35.6996 194.101 35.2996 193.801 34.9996C193.501 34.6996 193.101 34.5996 192.601 34.5996C192.301 34.5996 191.901 34.6996 191.501 34.7996C191.101 34.9996 190.701 35.2996 190.301 35.7996C189.901 36.2996 189.501 36.9996 189.101 37.8996C188.701 38.7996 188.401 39.9996 188.101 41.4996L186.901 48.1996C186.001 48.2996 185.201 48.3996 184.401 48.3996C183.601 48.3996 182.801 48.2996 182.101 48.1996L183.901 38.2996Z" fill="#2E2864"/>
<path d="M212.701 43.9998C212.901 44.3998 213.101 44.8998 213.301 45.3998C213.501 45.9998 213.501 46.6998 213.501 47.5998C212.801 47.8998 212.001 48.0998 211.201 48.2998C210.401 48.3998 209.501 48.4998 208.501 48.4998C205.901 48.4998 204.101 47.8998 202.901 46.5998C201.701 45.3998 201.101 43.6998 201.101 41.4998C201.101 40.1998 201.301 38.8998 201.801 37.4998C202.201 36.1998 202.901 34.9998 203.701 33.8998C204.601 32.7998 205.601 31.9998 206.801 31.2998C208.001 30.5998 209.501 30.2998 211.101 30.2998C211.901 30.2998 212.601 30.3998 213.301 30.4998C214.001 30.5998 214.701 30.7998 215.301 30.9998C215.301 31.5998 215.201 32.1998 215.001 32.8998C214.801 33.5998 214.501 34.1998 214.201 34.7998C213.701 34.5998 213.201 34.3998 212.701 34.2998C212.201 34.1998 211.701 34.0998 211.101 34.0998C210.201 34.0998 209.501 34.2998 208.801 34.6998C208.201 35.0998 207.601 35.5998 207.201 36.1998C206.801 36.7998 206.401 37.5998 206.201 38.3998C206.001 39.1998 205.901 40.0998 205.901 40.9998C205.901 42.1998 206.201 43.0998 206.801 43.6998C207.401 44.2998 208.201 44.5998 209.201 44.5998C209.701 44.5998 210.201 44.5998 210.701 44.4998C211.401 44.4998 212.001 44.2998 212.701 43.9998Z" fill="#2E2864"/>
<path d="M220.5 41.6C220.6 42.7 221 43.5 221.6 44C222.2 44.5 223 44.8 224.2 44.8C225.1 44.8 225.9 44.7 226.6 44.5C227.3 44.3 228 44.1 228.8 43.7C229.2 44.1 229.4 44.7 229.5 45.3C229.6 45.9 229.7 46.6 229.7 47.3C229.3 47.5 228.9 47.6 228.4 47.8C227.9 47.9 227.4 48.1 226.8 48.2C226.3 48.3 225.7 48.4 225.2 48.4C224.7 48.5 224.2 48.5 223.8 48.5C222.4 48.5 221.3 48.3 220.3 48C219.3 47.7 218.5 47.2 217.9 46.6C217.3 46 216.8 45.2 216.5 44.4C216.2 43.5 216 42.5 216 41.5C216 40.1 216.2 38.8 216.7 37.5C217.2 36.2 217.8 35 218.7 34C219.6 33 220.6 32.1 221.9 31.5C223.1 30.9 224.5 30.5 226.1 30.5C226.8 30.5 227.5 30.6 228.2 30.8C228.8 31 229.4 31.3 229.9 31.6C230.4 32 230.7 32.4 231 33C231.3 33.5 231.4 34.2 231.4 34.9C231.4 35.9 231.2 36.8 230.7 37.5C230.2 38.2 229.6 38.9 228.8 39.4C228 39.9 227.1 40.3 226.1 40.7C225.1 41 224.1 41.3 223 41.4L220.5 41.6ZM222.4 38.2C223.3 38.1 223.9 37.9 224.5 37.7C225 37.5 225.5 37.3 225.8 37C226.1 36.7 226.3 36.5 226.4 36.2C226.5 35.9 226.6 35.7 226.6 35.4C226.6 35 226.5 34.6 226.2 34.4C225.9 34.1 225.5 34 225.1 34C224.5 34 224 34.1 223.5 34.4C223 34.7 222.6 35 222.2 35.4C221.8 35.8 221.5 36.3 221.3 36.9C221 37.4 220.8 38 220.7 38.6L222.4 38.2Z" fill="#2E2864"/>
<path fill-rule="evenodd" clip-rule="evenodd" d="M46.0996 16.0998C43.5996 14.4998 41.2996 12.6998 39.2996 10.7998C33.5996 15.8998 24.8996 20.3998 16.5996 23.0998C17.1996 30.7998 18.6996 37.8998 21.5996 44.1998C27.4996 32.8998 36.0996 22.9998 46.0996 16.0998Z" fill="#2E2864"/>
<path fill-rule="evenodd" clip-rule="evenodd" d="M22.5 46.1C22.8 46.8 23.2 47.4 23.6 48C29.2 41.3 35.9 35.5 43.1 31L45 34.6C37.9 38.3 30.7 43.5 24.6 49.6C24.9 50.1 25.3 50.6 25.7 51.1C35.9 43.5 47.8 38.2 59.9 36.2C61 32 61.7 27.6 62.1 23C58 22 54.4 20.6 51.2 19C40.3 25.3 30.2 34.6 22.5 46.1Z" fill="url(#paint0_linear_386_385)"/>
<path fill-rule="evenodd" clip-rule="evenodd" d="M26.7998 52.7C29.9998 56.7 34.0998 60.1 39.1998 62.9H39.3998C48.8998 57.8 54.6998 50.4 58.1998 41.5C47.5998 42.9 36.6998 46.6 26.7998 52.7Z" fill="#2E2864"/>
<path d="M64.1002 23.6998H63.2002V23.2998H65.4002V23.6998H64.5002V26.0998H64.1002V23.6998ZM66.0002 23.2998H66.4002L67.4002 24.7998L68.4002 23.2998H68.8002V26.0998H68.4002V23.9998L67.4002 25.4998H67.3002L66.3002 23.9998V26.0998H66.0002V23.2998Z" fill="#0077B7"/>
<defs>
<linearGradient id="paint0_linear_386_385" x1="61.64" y1="23.31" x2="24.34" y2="48.76" gradientUnits="userSpaceOnUse">
<stop stop-color="#0090D7"/>
<stop offset="0.09" stop-color="#0087CB"/>
<stop offset="0.28" stop-color="#006FAC"/>
<stop offset="0.55" stop-color="#084680"/>
<stop offset="0.75" stop-color="#2E2864"/>
</linearGradient>
</defs>
</svg>
