<svg width="64" height="64" viewBox="0 0 64 64" fill="none" xmlns="http://www.w3.org/2000/svg">
<circle cx="32" cy="32" r="32" fill="#2A2A2A" fill-opacity="0.8"/>
<path d="M26.744 36.8956V26.1774C26.744 25.2935 26.744 24.8512 26.9443 24.5897C27.1191 24.3614 27.3886 24.2116 27.6877 24.1757C28.0303 24.1347 28.4505 24.3428 29.2898 24.7584L40.111 30.1175L40.1149 30.1191C41.0424 30.5785 41.5063 30.8082 41.6585 31.1144C41.7913 31.3816 41.7913 31.69 41.6585 31.9571C41.5061 32.2638 41.0411 32.4945 40.111 32.9551L29.2898 38.3142C28.4499 38.7301 28.0304 38.9374 27.6877 38.8963C27.3886 38.8605 27.1191 38.7107 26.9443 38.4825C26.744 38.221 26.744 37.7794 26.744 36.8956Z" fill="white" stroke="white" stroke-width="1.85507" stroke-linecap="round" stroke-linejoin="round"/>
</svg>
